<svg xmlns="http://www.w3.org/2000/svg" viewBox="-8 -10 50 50" shape-rendering="crispEdges">
  <defs>
    <style>
      :root {
        --cat-color: #1A1A1A;
        --cat-outline: #FFFFFF;
        --cat-outline-width: 1;
        --purr-face-x: 0px;
        --purr-face-y: 0px;
      }

      .breathe-anim { transform-origin: 16px 22px; animation: breathe 3.5s infinite ease-in-out; }
      /* 꼬리 회전축을 몸 안쪽 (24, 31)로 — 시작점이 거의 안 움직여서 분리 X */
      .tail-sway { transform-origin: 24px 31px; animation: tail-sway 4s infinite ease-in-out; }
      .whiskers-flex { transform-origin: 16px 16px; animation: whiskers 8s infinite ease-in-out; }
      .ear-twitch-l { transform-origin: 8px 8px; animation: ear-twitch-l 11s infinite; }
      .ear-twitch-r { transform-origin: 19px 9px; animation: ear-twitch-r 13s infinite; }

      .eye-l-blink {
        transform-origin: 9px 12.5px;
      }
      .eye-r-blink {
        transform-origin: 18px 12.5px;
      }
      :root.blinking .eye-l-blink,
      :root.blinking .eye-r-blink {
        animation: blink 0.20s ease-in-out forwards;
      }
      .pupil-left {
        transform-box: fill-box;
        transform-origin: center;
        transition: transform 0.24s ease-out;
      }
      .pupil-right {
        transform-box: fill-box;
        transform-origin: center;
        transition: transform 0.24s ease-out;
      }

      :root.purring .eye-l-blink,
      :root.purring .eye-r-blink {
        animation:
          purr-eye-close 0.22s ease-out forwards,
          purr-eye-hide 0.01s linear 0.22s forwards;
      }
      .closed-eye-line {
        opacity: 0;
      }
      :root.purring .closed-eye-line {
        animation: purr-closed-eye-show 0.01s linear 0.22s forwards;
      }
      :root.purring #whiskers {
        animation: purr-whiskers 0.42s steps(2, end) infinite;
      }
      :root.purring #face-js {
        animation: purr-face 1.1s steps(2, end) infinite;
      }
      :root.purring .tail-sway {
        animation: purr-tail-flutter 0.22s steps(2, end) infinite;
      }

      :root.hunting .breathe-anim {
        animation: none;
      }
      :root.hunting #face-js {
        transform-origin: 16px 16px;
        animation: hunting-face-crouch 0.42s ease-out forwards;
      }
      :root.hunting .hunting-body-grow {
        transform-origin: 16px 28px;
        animation: hunting-body-grow 0.42s ease-out forwards;
      }
      :root.hunting #body {
        transform-origin: 16px 28px;
        animation: hunting-body-wiggle 0.68s ease-in-out infinite;
      }
      :root.hunting .hunting-tail-rise {
        animation: hunting-tail-rise 0.42s ease-out forwards;
      }
      :root.hunting .tail-sway {
        transform-origin: 24px 31px;
        animation: hunting-tail-wiggle 0.68s ease-in-out 0.12s infinite;
      }
      :root.hunting .pupil-left,
      :root.hunting .pupil-right {
        transform: scale(1.33);
      }
      :root.hunting-return .breathe-anim {
        animation: none;
      }
      :root.hunting-return #face-js {
        transform-origin: 16px 16px;
        animation: hunting-face-return 0.42s ease-out forwards;
      }
      :root.hunting-return .hunting-body-grow {
        transform-origin: 16px 28px;
        animation: hunting-body-return 0.42s ease-out forwards;
      }
      :root.hunting-return #body {
        animation: none;
      }
      :root.hunting-return .hunting-tail-rise {
        animation: hunting-tail-return 0.42s ease-out forwards;
      }
      :root.hunting-return .tail-sway {
        animation: none;
      }

      #body-js, #face-js, #eyes-js {
        transition: transform 0.18s ease-out;
      }

      @keyframes breathe {
        0%, 100% { transform: scale(1, 1); }
        50% { transform: scale(1.015, 0.985) translate(0, 0.4px); }
      }
      /* 꼬리 흔들기 각도 부드럽게 (8° → 5°/3°) */
      @keyframes tail-sway {
        0%, 100% { transform: rotate(0deg); }
        35% { transform: rotate(5deg); }
        75% { transform: rotate(-3deg); }
      }
      @keyframes whiskers {
        0%, 90%, 100% { transform: scaleX(1); }
        92%, 96% { transform: scaleX(1.06); }
        94% { transform: scaleX(1); }
      }
      @keyframes ear-twitch-l {
        0%, 88%, 100% { transform: rotate(0deg); }
        90%, 94% { transform: rotate(-10deg); }
        92% { transform: rotate(0deg); }
      }
      @keyframes ear-twitch-r {
        0%, 78%, 100% { transform: rotate(0deg); }
        80%, 84% { transform: rotate(10deg); }
        82% { transform: rotate(0deg); }
      }
      /* 빠른 깜빡임: 4s 사이클, 96~99% 짧게 (총 0.12s) */
      @keyframes blink {
        0%, 100% { transform: scaleY(1); }
        50%       { transform: scaleY(0.08); }
      }
      @keyframes purr-eye-close {
        0% { transform: scaleY(1); }
        100% { transform: scaleY(0.24); }
      }
      @keyframes purr-eye-hide {
        to { opacity: 0; }
      }
      @keyframes purr-closed-eye-show {
        to { opacity: 1; }
      }
      @keyframes purr-whiskers {
        0%, 100% { transform: translateY(0); }
        50% { transform: translateY(0.6px); }
      }
      @keyframes purr-face {
        0%, 100% { transform: translate(var(--purr-face-x), var(--purr-face-y)); }
        50% { transform: translate(var(--purr-face-x), calc(var(--purr-face-y) + 0.4px)); }
      }
      @keyframes purr-tail-flutter {
        0%, 100% { transform: rotate(-5deg); }
        50% { transform: rotate(12deg); }
      }
      @keyframes hunting-face-crouch {
        0% { transform: translateY(0) scale(1); }
        100% { transform: translateY(11px) scale(1); }
      }
      @keyframes hunting-body-grow {
        0% { transform: scale(1); }
        100% { transform: scale(1.2); }
      }
      @keyframes hunting-body-wiggle {
        0%, 100% { transform: translateX(0); }
        25% { transform: translateX(-1px); }
        75% { transform: translateX(1px); }
      }
      @keyframes hunting-tail-wiggle {
        0%, 100% { transform: translateX(0); }
        25% { transform: translateX(-1px); }
        75% { transform: translateX(1px); }
      }
      @keyframes hunting-tail-rise {
        0% { transform: translateY(0); }
        100% { transform: translateY(-5px); }
      }
      @keyframes hunting-face-return {
        0% { transform: translateY(11px) scale(1); }
        100% { transform: translateY(0) scale(1); }
      }
      @keyframes hunting-body-return {
        0% { transform: scale(1.2); }
        100% { transform: scale(1); }
      }
      @keyframes hunting-tail-return {
        0% { transform: translateY(-5px); }
        100% { transform: translateY(0); }
      }
    </style>

    <filter id="idle-cat-outline" x="-20%" y="-20%" width="140%" height="140%">
      <feMorphology operator="dilate" radius="1" in="SourceAlpha" result="dilated"/>
      <feFlood flood-color="var(--cat-outline)" result="flood"/>
      <feComposite in="flood" in2="dilated" operator="in" result="outline"/>
      <feMerge>
        <feMergeNode in="outline"/>
        <feMergeNode in="SourceGraphic"/>
      </feMerge>
    </filter>

    <!-- 눈 흰자에 1px 짙은 회색 외곽선 — fixed dark gray -->
    <filter id="idle-eye-outline" x="-50%" y="-50%" width="200%" height="200%">
      <feMorphology operator="dilate" radius="1" in="SourceAlpha" result="dilated"/>
      <feFlood flood-color="#F5F5F5" result="flood"/>
      <feComposite in="flood" in2="dilated" operator="in" result="outline"/>
      <feMerge>
        <feMergeNode in="outline"/>
        <feMergeNode in="SourceGraphic"/>
      </feMerge>
    </filter>

    <clipPath id="idle-head-clip">
      <path transform="translate(3 4)" d="M4 3H2V5H1V7H0V12H1V16H3V17H4V18H6V19H16V18H18V17H19V16H20V15H21V12H22V8H21V5H20V4H19V3H17V2H15V1H7V2H4V3Z"/>
    </clipPath>
    <clipPath id="idle-body-clip">
      <path transform="translate(3 19)" d="M15 0V1H18V2H20V3H21V6H22V11H21V14H19V15H3V14H1V11H0V6H1V3H2V2H4V1H7V0H15Z"/>
    </clipPath>
    <clipPath id="idle-leg-fl-clip">
      <path d="M6 29V26H7V25H10V26H11V28H12V31H13V32H14V35H13V36H9V35H8V31H7V29H6Z"/>
    </clipPath>
    <clipPath id="idle-leg-fr-clip">
      <path d="M23 29V26H22V25H19V26H18V28H17V31H16V32H15V35H16V36H20V35H21V31H22V29H23Z"/>
    </clipPath>
    <!-- tail-clip은 renderer.js의 installTailComponent가 동적 생성 -->
  </defs>

  <g id="idle-body-js" filter="url(#idle-cat-outline)">
    <g class="breathe-anim">
      <!-- Tail — installTailComponent가 path/patches/clipPath 동적 주입.
           회전축은 부모 .tail-sway에서 (24,31). -->
      <g class="hunting-tail-rise">
        <g class="tail-sway">
          <g id="idle-tail" fill="var(--cat-color)" ><path transform="translate(20 24)" d="M0 8V7H6V6H8V5H9V4H8V1H9V0H11V1H12V2H13V7H12V8H11V9H9V10H4V9H1V8H0Z" fill="var(--cat-color)"/></g>
        </g>
      </g>

      <!-- Body — 맨 뒤 레이어 (먼저 그려서 다른 모든 부위가 그 위에 깔림) -->
      <g class="hunting-body-grow">
        <g id="idle-body" fill="var(--cat-color)" data-patch-frame="3 19 1 1">
          <path transform="translate(3 19)" d="M15 0V1H18V2H20V3H21V6H22V11H21V14H19V15H3V14H1V11H0V6H1V3H2V2H4V1H7V0H15Z"/>
          <g class="patches" clip-path="url(#idle-body-clip)"></g>
        </g>
      </g>

      <!-- 앞다리 (default.svg 참고) — 좌/우 따로 색칠 (legFl/legFr 키 분리) -->
      <g id="idle-legs" fill="var(--cat-color)">
        <g id="idle-leg-fl" data-patch-frame="6 25 1 1">
          <path d="M6 29V26H7V25H10V26H11V28H12V31H13V32H14V35H13V36H9V35H8V31H7V29H6Z"/>
          <g class="patches" clip-path="url(#idle-leg-fl-clip)"></g>
        </g>
        <g id="idle-leg-fr" data-patch-frame="15 25 1 1">
          <path d="M23 29V26H22V25H19V26H18V28H17V31H16V32H15V35H16V36H20V35H21V31H22V29H23Z"/>
          <g class="patches" clip-path="url(#idle-leg-fr-clip)"></g>
        </g>
      </g>

      <!-- ===== FACE GROUP ===== -->
      <g id="idle-face-js">

        <g class="whiskers-flex">
          <g id="idle-whiskers" fill="var(--cat-color)" data-heat-overlay="true">
            <rect x="0" y="14" width="5" height="1"/>
            <rect x="23" y="14" width="5" height="1"/>
            <rect x="0" y="17" width="6" height="1"/>
            <rect x="23" y="17" width="6" height="1"/>
          </g>
        </g>

        <!-- 귀 — installEarComponents가 표준 ear path 동적 주입.
             부모 .ear-twitch-l/.ear-twitch-r는 트위치 애니메이션 유지. -->
        <g class="ear-twitch-l">
          <g id="idle-ear-left"><path transform="translate(5 2)" d="M0 7V4H1V2H2V1H3V0H4V2H5V3H6V7H5V8H1V7H0Z" fill="var(--cat-color)"/></g>
        </g>
        <g class="ear-twitch-r">
          <g id="idle-ear-right"><path transform="translate(17 2)" d="M1 3H0V7H1V8H4V7H5V2H4V1H3V0H2V1H1V3Z" fill="var(--cat-color)"/></g>
        </g>

        <g id="idle-head" fill="var(--cat-color)" data-patch-frame="3 5 1 1">
          <path transform="translate(3 4)" d="M4 3H2V5H1V7H0V12H1V16H3V17H4V18H6V19H16V18H18V17H19V16H20V15H21V12H22V8H21V5H20V4H19V3H17V2H15V1H7V2H4V3Z"/>
          <g class="patches" clip-path="url(#idle-head-clip)"></g>
        </g>

        <g id="idle-eyes-js">
          <g class="eye-l-blink">
            <g id="idle-eye-left">
              <g fill="var(--eye-bg-color, #FFFFFF)">
                <rect x="7" y="11" width="1" height="3"/>
                <rect x="11" y="11" width="1" height="3"/>
                <rect x="8" y="10" width="3" height="5"/>
              </g>
              <rect id="idle-pupil-left" class="pupil-left" x="8" y="11" width="3" height="3" fill="var(--eye-color-left, var(--eye-color, var(--cat-color)))"/>
            </g>
          </g>
          <g class="eye-r-blink">
            <g id="idle-eye-right">
              <g fill="var(--eye-bg-color, #FFFFFF)">
                <rect x="16" y="11" width="1" height="3"/>
                <rect x="20" y="11" width="1" height="3"/>
                <rect x="17" y="10" width="3" height="5"/>
              </g>
              <rect id="idle-pupil-right" class="pupil-right" x="17" y="11" width="3" height="3" fill="var(--eye-color-right, var(--eye-color, var(--cat-color)))"/>
            </g>
          </g>
          <rect class="closed-eye-line" x="7" y="12" width="5" height="1" fill="var(--cat-outline)"/>
          <rect class="closed-eye-line" x="16" y="12" width="5" height="1" fill="var(--cat-outline)"/>
        </g>

      </g>

    </g>
  </g>

  <g class="steam-g" fill="#c9c9ce">
    <rect class="stm s1" x="12" y="-8" width="1.6" height="1.6"/>
    <rect class="stm s2" x="16" y="-10" width="2" height="2"/>
    <rect class="stm s3" x="20" y="-8" width="1.6" height="1.6"/>
  </g>
</svg>
