<svg width="40" height="62" viewBox="0 0 40 62" fill="none" xmlns="http://www.w3.org/2000/svg">
<defs>
  <clipPath id="jst-head-clip"><path d="M13 18H11V20H10V22H9V27H10V31H12V32H13V33H15V34H25V33H27V32H28V31H29V30H30V27H31V23H30V20H29V19H28V18H26V17H24V16H16V17H13V18Z"/></clipPath>
  <clipPath id="jst-body-clip"><path d="M13 32H27V34H28V44H29V50H30V55H10V50H11V44H12V34H13V32Z"/></clipPath>
  <clipPath id="jst-leg-rl-clip"><path d="M10 56V52H18V56H17V58H16V60H12V58H11V56H10Z"/></clipPath>
  <clipPath id="jst-leg-rr-clip"><path d="M22 56V52H30V56H29V58H28V60H24V58H23V56H22Z"/></clipPath>
  <clipPath id="jst-leg-fl-clip"><path d="M12 48H11L11 38H12L12 37L13 37V36L16 36L16 48H15V49H12L12 48Z"/></clipPath>
  <clipPath id="jst-leg-fr-clip"><path d="M28 48H29L29 38H28V37L27 37V36L24 36L24 48H25V49H28V48Z"/></clipPath>
  <filter id="jst-cat-outline" x="-20%" y="-20%" width="140%" height="140%">
    <feMorphology operator="dilate" radius="1" in="SourceAlpha" result="dilated"/>
    <feFlood flood-color="var(--cat-outline, #FFFFFF)" result="flood"/>
    <feComposite in="flood" in2="dilated" operator="in" result="outline"/>
    <feMerge><feMergeNode in="outline"/><feMergeNode in="SourceGraphic"/></feMerge>
  </filter>
</defs>
<g id="jst-cat-content" filter="url(#jst-cat-outline)">
<g id="jst-leg-fl" data-patch-frame="11 36 0.625 1.182">
  <animateTransform attributeName="transform" type="rotate" values="8 16 37; 8 16 37" dur="1s" repeatCount="indefinite"/>
  <path d="M12 48H11L11 38H12L12 37L13 37V36L16 36L16 48H15V49H12L12 48Z" fill="var(--cat-color)"/>
  <g class="patches" clip-path="url(#jst-leg-fl-clip)"></g>
</g>
<g id="jst-leg-fr" data-patch-frame="24 36 0.625 1.182">
  <animateTransform attributeName="transform" type="rotate" values="-8 24 37; -8 24 37" dur="1s" repeatCount="indefinite"/>
  <path d="M28 48H29L29 38H28V37L27 37V36L24 36L24 48H25V49H28V48Z" fill="var(--cat-color)"/>
  <g class="patches" clip-path="url(#jst-leg-fr-clip)"></g>
</g>
<g id="jst-head" data-patch-frame="9 16 1 1">
  <path d="M13 18H11V20H10V22H9V27H10V31H12V32H13V33H15V34H25V33H27V32H28V31H29V30H30V27H31V23H30V20H29V19H28V18H26V17H24V16H16V17H13V18Z" fill="var(--cat-color)"/>
  <g class="patches" clip-path="url(#jst-head-clip)"></g>
</g>
<g id="jst-tail" data-patch-frame="26 43 1 1"><path transform="translate(26 43)" d="M0 8V7H6V6H8V5H9V4H8V1H9V0H11V1H12V2H13V7H12V8H11V9H9V10H4V9H1V8H0Z" fill="var(--cat-color)"/></g>
<g id="jst-whiskers" data-heat-overlay="true">
  <rect width="5" height="1.02083" transform="translate(6 24)" fill="var(--cat-color)"/>
  <rect width="5" height="1.02083" transform="translate(29 24)" fill="var(--cat-color)"/>
  <rect width="6" height="1.02083" transform="translate(5 27)" fill="var(--cat-color)"/>
  <rect width="6" height="1.02083" transform="translate(29 27)" fill="var(--cat-color)"/>
</g>
<g id="jst-ear-left" data-ear-position="11 12"><path transform="translate(11 12)" d="M0 7V4H1V2H2V1H3V0H4V2H5V3H6V7H5V8H1V7H0Z" fill="var(--cat-color)"/></g>
<g id="jst-ear-right" data-ear-position="24 12"><path transform="translate(24 12)" d="M1 3H0V7H1V8H4V7H5V2H4V1H3V0H2V1H1V3Z" fill="var(--cat-color)"/></g>
<rect width="1" height="3.0625" transform="translate(22 23.0205)" fill="var(--eye-bg-color, #FFFFFF)"/>
<rect width="1" height="3.0625" transform="translate(26 23.0205)" fill="var(--eye-bg-color, #FFFFFF)"/>
<rect width="3" height="5.10417" transform="translate(23 22)" fill="var(--eye-bg-color, #FFFFFF)"/>
<rect class="pupil-right" width="3" height="3.0625" x="23" y="23.0205" fill="var(--eye-color-right, var(--eye-color, var(--cat-color)))"/>
<rect width="1" height="3.0625" transform="translate(13 23.0205)" fill="var(--eye-bg-color, #FFFFFF)"/>
<rect width="1" height="3.0625" transform="translate(17 23.0205)" fill="var(--eye-bg-color, #FFFFFF)"/>
<rect width="3" height="5.10417" transform="translate(14 22)" fill="var(--eye-bg-color, #FFFFFF)"/>
<rect class="pupil-left" width="3" height="3.0625" x="14" y="23.0205" fill="var(--eye-color-left, var(--eye-color, var(--cat-color)))"/>
<g id="jst-leg-rl" data-patch-frame="10 52 1 1">
  <path d="M10 56V52H18V56H17V58H16V60H12V58H11V56H10Z" fill="var(--cat-color)"/>
  <g class="patches" clip-path="url(#jst-leg-rl-clip)"></g>
</g>
<g id="jst-leg-rr" data-patch-frame="22 52 1 1">
  <path d="M22 56V52H30V56H29V58H28V60H24V58H23V56H22Z" fill="var(--cat-color)"/>
  <g class="patches" clip-path="url(#jst-leg-rr-clip)"></g>
</g>
<g id="jst-body" data-patch-frame="10 36 0.909 1.267">
  <path d="M13 32H27V34H28V44H29V50H30V55H10V50H11V44H12V34H13V32Z" fill="var(--cat-color)"/>
  <g class="patches" clip-path="url(#jst-body-clip)"></g>
</g>
</g>
</svg>
